<svg width="549" height="174" viewBox="0 0 549 174" fill="none" xmlns="http://www.w3.org/2000/svg">
<path d="M15.4904 168.91C16.1626 170.116 17.6852 170.549 18.8912 169.876L38.5445 158.922C39.7506 158.25 40.1833 156.727 39.5111 155.521C38.8389 154.315 37.3163 153.883 36.1102 154.555L18.6406 164.292L8.90345 146.822C8.23124 145.616 6.70863 145.184 5.50261 145.856C4.29658 146.528 3.86384 148.051 4.53605 149.257L15.4904 168.91ZM173.935 65.3404C175.309 65.2027 176.311 63.9773 176.173 62.6035C176.035 61.2297 174.81 60.2276 173.436 60.3654L173.935 65.3404ZM20.0788 168.376C30.9919 129.978 81.0531 74.6525 173.935 65.3404L173.436 60.3654C78.8154 69.8518 26.8218 126.361 15.2693 167.009L20.0788 168.376Z" fill="black"/>
<path d="M195.921 51.1097C195.458 51.1355 195.045 51.023 194.682 50.7721C194.32 50.5213 194.114 49.9519 194.064 49.0639C194.041 48.6585 194.15 48.0038 194.39 47.0997C194.63 46.1956 194.958 45.1317 195.374 43.908C195.808 42.6639 196.296 41.349 196.839 39.9633C197.381 38.5776 197.953 37.2 198.554 35.8304C199.156 34.4608 199.743 33.1888 200.317 32.0144C200.89 30.84 201.425 29.842 201.921 29.0204C202.436 28.1784 202.859 27.6127 203.192 27.323C203.673 26.9283 204.165 26.7169 204.667 26.6889C204.937 26.6739 205.199 26.6883 205.453 26.7322C205.727 26.7751 205.954 26.8592 206.136 26.9846C206.555 27.213 206.939 27.6756 207.288 28.3726C207.655 29.0493 207.991 29.8728 208.297 30.8433C208.622 31.8127 208.903 32.862 209.14 33.9912C209.396 35.1001 209.622 36.2008 209.818 37.2936C210.546 37.1562 211.046 37.0799 211.316 37.0649C211.895 37.0326 212.411 37.0909 212.865 37.2399C213.318 37.3696 213.567 37.6848 213.615 38.1856C213.68 38.6661 213.548 39.08 213.219 39.4276C212.909 39.774 212.498 40.039 211.986 40.2225C211.758 40.3126 211.205 40.4693 210.327 40.6925C210.44 41.6738 210.515 42.5022 210.553 43.1778C210.649 44.8958 210.626 46.2331 210.486 47.1898C210.365 48.1453 210.171 48.8338 209.904 49.2554C209.657 49.6758 209.381 49.9332 209.076 50.0277C208.792 50.1403 208.534 50.2031 208.302 50.216C208.283 50.2171 208.264 50.2182 208.244 50.2193C207.685 50.2505 207.261 50.1288 206.975 49.8544C206.708 49.5788 206.556 49.1032 206.518 48.4276L206.403 46.3718C206.368 45.7348 206.318 45.0211 206.255 44.2307C206.191 43.4404 206.106 42.6028 205.999 41.7181C204.87 41.9746 203.742 42.2312 202.614 42.4877C201.504 42.7239 200.548 42.9321 199.745 43.1124C199.426 44.0015 199.151 44.8011 198.92 45.5111C198.687 46.2018 198.533 46.7428 198.458 47.1343C198.222 48.0963 197.993 48.8545 197.772 49.409C197.55 49.9442 197.329 50.3244 197.109 50.5497C196.91 50.7931 196.715 50.9396 196.524 50.9889C196.334 51.0576 196.133 51.0979 195.921 51.1097ZM201.138 39.4622C201.938 39.2239 202.711 39.0066 203.455 38.8102C204.198 38.5945 204.904 38.4003 205.572 38.2275C205.408 37.036 205.227 35.8746 205.029 34.7433C204.83 33.6119 204.619 32.6071 204.396 31.7288C203.948 32.722 203.424 33.913 202.823 35.3019C202.241 36.6704 201.68 38.0572 201.138 39.4622ZM229.623 32.9072C230.544 30.3193 231.335 27.6612 231.996 24.9328C232.12 24.3837 232.319 23.9563 232.592 23.6506C232.885 23.3438 233.302 23.1754 233.842 23.1452C234.286 23.1205 234.632 23.2368 234.878 23.4941C235.124 23.7321 235.259 24.0731 235.284 24.5171C235.304 24.8839 235.186 25.5488 234.93 26.5119C234.673 27.4556 234.362 28.6541 233.998 30.1073C233.634 31.5605 233.282 33.2357 232.942 35.1329C232.603 37.0301 232.341 39.1069 232.157 41.3633C231.973 43.6197 231.952 46.0219 232.094 48.57C232.133 49.2649 232.029 49.8419 231.784 50.3009C231.559 50.7782 231.128 51.0346 230.491 51.0701C229.796 51.1089 229.271 50.8961 228.916 50.4318C228.58 49.9664 228.391 49.3573 228.349 48.6045C228.266 47.1182 228.246 45.8801 228.287 44.8902C228.347 43.88 228.415 43.0145 228.491 42.2938C227.635 43.968 226.71 45.4235 225.714 46.6602C224.736 47.8765 223.782 48.8205 222.851 49.492C221.921 50.1828 221.109 50.5476 220.414 50.5863C219.275 50.6498 218.331 50.383 217.581 49.7858C216.831 49.1886 216.42 48.2434 216.348 46.95C216.292 45.9463 216.476 44.9001 216.899 43.8115C217.322 42.7036 217.9 41.6064 218.633 40.5199C219.366 39.4334 220.18 38.4101 221.076 37.4501C221.989 36.4697 222.909 35.6052 223.836 34.8565C224.761 34.0884 225.627 33.4786 226.435 33.0269C227.242 32.5753 227.907 32.3349 228.428 32.3059C229.007 32.2736 229.405 32.474 229.623 32.9072ZM229.044 34.5079C228.933 34.5916 228.812 34.6758 228.681 34.7606C228.568 34.8249 228.456 34.899 228.345 34.9826C227.637 35.4868 226.886 36.0902 226.093 36.7928C225.298 37.4761 224.518 38.2361 223.751 39.0727C222.984 39.89 222.286 40.7422 221.657 41.6292C221.047 42.4959 220.563 43.3555 220.204 44.2082C219.863 45.0404 219.713 45.833 219.755 46.5858C219.763 46.7209 219.826 46.8142 219.945 46.8657C220.064 46.9171 220.172 46.9402 220.269 46.9348C220.944 46.8971 221.651 46.5575 222.39 45.9161C223.148 45.2736 223.903 44.3988 224.655 43.292C225.424 42.1647 226.174 40.8546 226.904 39.3616C227.654 37.8676 228.367 36.2497 229.044 34.5079ZM249.756 31.7847C250.677 29.1967 251.467 26.5386 252.129 23.8102C252.253 23.2611 252.452 22.8337 252.725 22.528C253.018 22.2213 253.434 22.0528 253.975 22.0227C254.419 21.9979 254.764 22.1142 255.011 22.3715C255.257 22.6096 255.392 22.9506 255.417 23.3945C255.437 23.7613 255.319 24.4262 255.063 25.3893C254.806 26.3331 254.495 27.5316 254.131 28.9848C253.766 30.438 253.415 32.1132 253.075 34.0104C252.735 35.9075 252.474 37.9843 252.29 40.2407C252.106 42.4972 252.085 44.8994 252.227 47.4474C252.265 48.1423 252.162 48.7193 251.917 49.1784C251.691 49.6556 251.26 49.912 250.623 49.9476C249.928 49.9863 249.403 49.7735 249.048 49.3092C248.713 48.8439 248.524 48.2348 248.482 47.482C248.399 45.9956 248.378 44.7575 248.42 43.7676C248.48 42.7574 248.548 41.892 248.624 41.1713C247.768 42.8455 246.843 44.301 245.846 45.5377C244.869 46.754 243.914 47.6979 242.984 48.3694C242.054 49.0602 241.242 49.425 240.547 49.4638C239.408 49.5273 238.464 49.2604 237.714 48.6633C236.964 48.0661 236.553 47.1208 236.481 45.8275C236.425 44.8237 236.609 43.7775 237.032 42.6889C237.455 41.581 238.032 40.4838 238.766 39.3973C239.499 38.3108 240.313 37.2876 241.209 36.3276C242.122 35.3472 243.042 34.4826 243.968 33.7339C244.894 32.9659 245.76 32.356 246.568 31.9044C247.375 31.4527 248.039 31.2124 248.561 31.1833C249.14 31.151 249.538 31.3515 249.756 31.7847ZM249.177 33.3854C249.066 33.4691 248.944 33.5533 248.814 33.638C248.701 33.7024 248.589 33.7764 248.477 33.8601C247.77 34.3643 247.019 34.9676 246.226 35.6702C245.431 36.3535 244.651 37.1135 243.884 37.9501C243.116 38.7675 242.418 39.6197 241.79 40.5067C241.18 41.3733 240.696 42.233 240.336 43.0856C239.996 43.9179 239.846 44.7104 239.888 45.4632C239.896 45.5984 239.959 45.6917 240.078 45.7431C240.197 45.7946 240.305 45.8176 240.401 45.8122C241.077 45.7745 241.784 45.435 242.523 44.7935C243.281 44.151 244.036 43.2763 244.787 42.1694C245.557 41.0421 246.307 39.732 247.037 38.2391C247.786 36.745 248.5 35.1271 249.177 33.3854ZM275.613 46.9858C274.995 47.0202 274.426 46.8777 273.904 46.5582C273.384 46.2581 272.964 45.8458 272.645 45.3214C272.324 44.7778 272.146 44.1875 272.11 43.5504C272.043 42.3536 272.239 41.1713 272.697 40.0033C273.174 38.8343 273.818 37.714 274.629 36.6425C275.441 35.571 276.335 34.582 277.31 33.6756C278.304 32.7489 279.296 31.9481 280.284 31.2733C281.292 30.5975 282.211 30.0622 283.041 29.6674C283.891 29.2715 284.556 29.0601 285.039 29.0332C285.599 29.002 286.059 29.1021 286.421 29.3337C286.801 29.5449 287.004 29.9014 287.032 30.4033C287.041 30.5577 287.009 30.6854 286.938 30.7862C287.192 30.8301 287.402 30.9636 287.57 31.1866C287.737 31.4096 287.834 31.7528 287.86 32.2161C287.87 32.4091 287.85 32.9137 287.799 33.7298C287.747 34.5459 287.696 35.5363 287.645 36.701C287.613 37.8646 287.632 39.0737 287.702 40.3284C287.713 40.5215 287.751 40.6936 287.818 40.8448C287.883 40.9767 288.013 41.0372 288.206 41.0265C288.978 40.9834 289.751 40.7854 290.525 40.4324C291.318 40.0591 292.077 39.6198 292.804 39.1145C293.55 38.5889 294.218 38.0772 294.81 37.5795C295.42 37.0614 295.929 36.636 296.336 36.3035C296.762 35.9506 297.042 35.7704 297.177 35.7628C297.834 35.7262 298.18 36.0361 298.217 36.6924C298.227 36.8662 298.035 37.2448 297.641 37.8282C297.266 38.3913 296.741 39.0499 296.067 39.8039C295.391 40.5387 294.629 41.2783 293.78 42.0227C292.949 42.7468 292.073 43.3571 291.152 43.8539C290.25 44.3495 289.365 44.6215 288.496 44.67C287.434 44.7292 286.609 44.5234 286.022 44.0528C285.453 43.581 285.029 42.9269 284.75 42.0905C284.49 41.2337 284.32 40.2653 284.24 39.1854C283.334 40.6494 282.381 41.9612 281.381 43.1207C280.399 44.2598 279.414 45.1764 278.426 45.8704C277.439 46.5645 276.501 46.9363 275.613 46.9858ZM285.054 31.9078C283.213 32.9205 281.572 34.0576 280.132 35.3191C278.691 36.5612 277.562 37.8441 276.745 39.1676C275.948 40.4901 275.582 41.74 275.647 42.9175C275.666 43.2457 275.829 43.4012 276.138 43.3839C276.505 43.3635 276.976 43.1243 277.55 42.6662C278.144 42.2071 278.779 41.6102 279.455 40.8754C280.129 40.1214 280.799 39.2901 281.465 38.3816C282.13 37.4539 282.745 36.5095 283.311 35.5485C283.877 34.5875 284.32 33.6721 284.639 32.8023C284.757 32.4859 284.895 32.1877 285.054 31.9078ZM310.579 53.2559C310.039 53.286 309.603 53.1167 309.273 52.7478C308.963 52.3972 308.787 51.8358 308.743 51.0637C308.684 50.002 308.71 48.7322 308.822 47.2544C308.933 45.7766 309.107 44.2082 309.343 42.5491C309.58 40.89 309.847 39.2583 310.145 37.6539C310.507 35.8135 310.869 34.1378 311.23 32.6267C311.61 31.1145 312.007 29.9015 312.421 28.9877C312.853 28.0535 313.31 27.573 313.793 27.5461C314.237 27.5213 314.632 27.6639 314.979 27.9738C315.343 28.2632 315.543 28.7168 315.577 29.3345C315.602 29.7785 315.522 30.422 315.336 31.2649C315.15 32.0886 314.917 33.1182 314.637 34.3536C315.233 33.2361 315.85 32.1367 316.487 31.0556C317.143 29.9734 317.814 28.9872 318.5 28.0969C319.186 27.2067 319.863 26.4912 320.53 25.9506C321.197 25.4099 321.839 25.1224 322.457 25.088C323.19 25.0471 323.849 25.2233 324.432 25.6168C325.035 26.0092 325.521 26.563 325.89 27.2782C326.259 27.9935 326.469 28.8144 326.521 29.7409C326.617 31.4589 326.401 33.1459 325.874 34.8018C325.345 36.4384 324.567 37.9244 323.537 39.2598C322.527 40.5941 321.319 41.678 319.914 42.5116C318.507 43.3258 316.964 43.7798 315.284 43.8734C314.802 43.9003 314.355 43.8768 313.944 43.8029C313.554 43.7472 313.191 43.6706 312.857 43.5731C312.694 44.8214 312.543 46.0981 312.402 47.4033C312.283 48.7267 312.157 50.1182 312.025 51.5778C311.853 52.6524 311.371 53.2117 310.579 53.2559ZM322.937 28.4885C322.512 28.5122 321.988 28.8319 321.364 29.4476C320.759 30.0622 320.107 30.8634 319.406 31.8513C318.705 32.8198 317.999 33.8757 317.289 35.0191C316.596 36.1421 315.931 37.2441 315.294 38.3252C314.677 39.4053 314.148 40.3448 313.709 41.1439C315.167 40.9076 316.439 40.4495 317.524 39.7693C318.608 39.0699 319.521 38.2445 320.262 37.2931C321.003 36.3417 321.586 35.3507 322.013 34.32C322.458 33.2689 322.769 32.2544 322.947 31.2763C323.125 30.2982 323.194 29.452 323.154 28.7378C323.144 28.5641 323.072 28.481 322.937 28.4885ZM332.124 44.9966C331.236 45.0461 330.585 44.8307 330.171 44.3504C329.757 43.87 329.523 43.1472 329.47 42.1821C329.42 41.2941 329.52 40.1268 329.768 38.68C330.035 37.2129 330.399 35.5758 330.859 33.7686C331.338 31.9411 331.882 30.0616 332.491 28.1301C333.099 26.1792 333.737 24.2654 334.407 22.3885C335.076 20.4923 335.734 18.7516 336.382 17.1665C336.691 16.4715 337.032 15.9877 337.404 15.7153C337.776 15.4428 338.194 15.2937 338.657 15.2678C339.101 15.2431 339.485 15.3476 339.808 15.5813C340.129 15.7957 340.305 16.1635 340.334 16.6847C340.34 16.8005 340.211 17.2531 339.945 18.0425C339.678 18.8125 339.328 19.8196 338.893 21.0637C338.458 22.2885 337.983 23.6704 337.469 25.2094C336.954 26.7291 336.442 28.3164 335.934 29.9713C335.425 31.6068 334.972 33.2198 334.577 34.8103C334.182 36.4008 333.876 37.87 333.661 39.2181C334.286 38.2732 334.954 37.2291 335.665 36.0857C336.394 34.922 337.133 33.7674 337.882 32.6219C338.65 31.456 339.404 30.3877 340.143 29.417C340.903 28.4453 341.614 27.6601 342.278 27.0616C342.941 26.463 343.534 26.1492 344.055 26.1202C345.02 26.0664 345.807 26.2935 346.417 26.8018C347.044 27.2896 347.394 28.1802 347.466 29.4735C347.499 30.0719 347.424 30.8022 347.24 31.6645C347.054 32.5074 346.823 33.4013 346.547 34.3462C346.289 35.2707 346.067 36.1641 345.883 37.0263C345.699 37.8886 345.624 38.6382 345.66 39.2752C345.679 39.6227 345.853 39.7873 346.181 39.769C347.127 39.7162 348.071 39.4603 349.014 39.0011C349.976 38.5408 350.884 37.9867 351.738 37.3388C352.611 36.6705 353.398 36.0167 354.098 35.3774C354.816 34.7177 355.396 34.1723 355.837 33.7411C356.147 33.4139 356.435 33.1946 356.7 33.083C356.964 32.9521 357.212 32.8802 357.443 32.8673C358.235 32.8232 358.653 33.1968 358.697 33.9883C358.705 34.1427 358.687 34.3373 358.642 34.5722C358.596 34.7878 358.428 35.0682 358.137 35.4136C357.847 35.759 357.409 36.2481 356.825 36.8809C356.24 37.5138 355.552 38.1912 354.76 38.9131C353.987 39.6339 353.135 40.3301 352.204 41.0016C351.292 41.6527 350.344 42.1993 349.362 42.6413C348.38 43.0834 347.416 43.3308 346.47 43.3835C345.041 43.4632 343.918 43.1191 343.101 42.3514C342.285 41.6031 341.838 40.5436 341.762 39.1731C341.709 38.2272 341.836 37.0293 342.143 35.5793C342.448 34.11 342.8 32.6091 343.199 31.0765C342.56 31.7705 341.899 32.5916 341.216 33.5397C340.532 34.4686 339.841 35.4559 339.144 36.5017C338.446 37.5281 337.758 38.5444 337.078 39.5504C336.416 40.5361 335.779 41.443 335.167 42.271C334.554 43.0797 333.99 43.7308 333.475 44.2242C332.961 44.7176 332.51 44.9751 332.124 44.9966ZM361.379 42.0584C360.008 42.1349 358.881 41.7136 357.997 40.7947C357.112 39.8566 356.624 38.5671 356.533 36.9263C356.504 36.4051 356.541 35.8705 356.646 35.3225C356.771 34.7734 356.926 34.2612 357.113 33.7861C356.987 33.6188 356.878 33.4022 356.786 33.1363C356.712 32.85 356.664 32.5138 356.643 32.1277C356.573 30.873 356.731 29.7121 357.116 28.6449C357.501 27.5585 358.049 26.6082 358.758 25.7941C359.468 24.98 360.265 24.3353 361.148 23.8601C362.032 23.3848 362.937 23.1213 363.864 23.0697C365.446 22.9814 366.769 23.4401 367.832 24.4459C368.915 25.4505 369.518 27.0724 369.643 29.3116C369.705 30.4312 369.595 31.5798 369.312 32.7574C369.029 33.9349 368.618 35.0712 368.079 36.1663C367.558 37.241 366.935 38.2148 366.209 39.0879C365.502 39.96 364.728 40.6615 363.887 41.1925C363.064 41.7224 362.228 42.0111 361.379 42.0584ZM360.37 32.2975C360.478 32.5044 360.54 32.7527 360.557 33.0422C360.573 33.3318 360.532 33.6342 360.433 33.9495C360.334 34.2648 360.242 34.6863 360.155 35.214C360.067 35.7223 360.05 36.4494 360.102 37.3953C360.116 37.6462 360.157 37.857 360.225 38.0275C360.31 38.1776 360.479 38.2456 360.73 38.2316C361.386 38.1951 361.992 37.9483 362.547 37.4913C363.122 37.0333 363.622 36.4439 364.046 35.7231C364.49 35.0013 364.852 34.2066 365.133 33.3389C365.432 32.4509 365.644 31.5581 365.768 30.6604C365.911 29.7424 365.96 28.8973 365.917 28.1252C365.889 27.6233 365.773 27.2812 365.57 27.0989C365.366 26.9167 365.023 26.839 364.54 26.8659C363.884 26.9025 363.22 27.1525 362.549 27.6159C361.896 28.059 361.357 28.6505 360.934 29.3906C360.509 30.1113 360.322 30.9157 360.371 31.8036C360.381 31.9774 360.381 32.142 360.37 32.2975ZM393.678 24.6603C393.691 24.892 393.625 25.099 393.481 25.2813C393.336 25.4636 393.15 25.6095 392.924 25.719C392.603 25.8724 392.044 26.0779 391.245 26.3354C390.446 26.5929 389.475 26.8891 388.332 27.2239C387.208 27.5577 385.998 27.9059 384.701 28.2687C383.404 28.6121 382.106 28.9459 380.807 29.27C380.408 31.1511 380.003 33.0907 379.592 35.0887C379.179 37.0674 378.765 39.0171 378.35 40.9379C378.194 41.6243 377.991 42.1488 377.74 42.5113C377.491 42.8931 377.037 43.1023 376.381 43.1389C375.667 43.1788 375.171 42.974 374.895 42.5247C374.638 42.0937 374.575 41.4872 374.706 40.7054C375.091 38.5734 375.445 36.5882 375.768 34.75C376.111 32.9108 376.386 31.4238 376.594 30.2891C375.447 30.5468 374.442 30.7577 373.58 30.9219C372.716 31.0669 372.101 31.1399 371.733 31.1411C371.325 31.1251 370.979 30.9798 370.692 30.7054C370.406 30.4309 370.26 30.0808 370.256 29.655C370.273 29.2668 370.429 28.9289 370.722 28.6415C371.015 28.3347 371.372 28.1405 371.794 28.0589C372.389 27.9677 373.156 27.8377 374.095 27.6692C375.035 27.5006 376.07 27.3074 377.2 27.0895C377.396 26.091 377.629 25.0614 377.899 24.0007C378.168 22.9208 378.449 21.8885 378.743 20.904C379.055 19.899 379.354 19.0207 379.642 18.2688C379.929 17.517 380.199 16.9695 380.45 16.6263C380.649 16.3635 380.899 16.1559 381.2 16.0036C381.521 15.8502 381.835 15.7648 382.144 15.7476C382.55 15.725 382.886 15.8515 383.153 16.127C383.42 16.4026 383.564 16.7334 383.586 17.1195C383.594 17.2739 383.594 17.4385 383.584 17.6133C383.574 17.7688 383.544 17.9254 383.494 18.0831C383.181 19.0687 382.851 20.2586 382.502 21.6528C382.174 23.046 381.833 24.5753 381.48 26.2408C382.916 25.9478 384.323 25.6563 385.701 25.3665C387.097 25.0563 388.36 24.7729 389.488 24.5164C390.634 24.2395 391.55 24.0044 392.237 23.8113C392.615 23.6546 392.945 23.6653 393.226 23.8432C393.506 24.0019 393.657 24.2743 393.678 24.6603ZM394.999 40.1838C393.629 40.2603 392.502 39.839 391.618 38.9201C390.733 37.982 390.245 36.6925 390.153 35.0517C390.124 34.5305 390.162 33.9959 390.267 33.4479C390.391 32.8987 390.547 32.3866 390.733 31.9115C390.608 31.7442 390.499 31.5276 390.407 31.2617C390.333 30.9754 390.285 30.6392 390.263 30.2531C390.193 28.9984 390.351 27.8375 390.737 26.7703C391.122 25.6839 391.669 24.7336 392.379 23.9195C393.089 23.1054 393.885 22.4607 394.769 21.9855C395.653 21.5102 396.558 21.2467 397.484 21.1951C399.067 21.1068 400.39 21.5655 401.453 22.5713C402.535 23.5759 403.139 25.1978 403.264 27.437C403.326 28.5566 403.216 29.7052 402.933 30.8828C402.65 32.0603 402.239 33.1966 401.7 34.2917C401.179 35.3664 400.555 36.3402 399.83 37.2133C399.123 38.0854 398.349 38.7869 397.507 39.3179C396.685 39.8478 395.849 40.1365 394.999 40.1838ZM393.99 30.4229C394.099 30.6298 394.161 30.8781 394.177 31.1676C394.193 31.4572 394.152 31.7596 394.054 32.0749C393.955 32.3902 393.862 32.8117 393.776 33.3394C393.688 33.8477 393.67 34.5748 393.723 35.5207C393.737 35.7716 393.778 35.9823 393.845 36.1528C393.931 36.303 394.099 36.371 394.35 36.357C395.007 36.3204 395.613 36.0737 396.168 35.6167C396.743 35.1587 397.242 34.5693 397.667 33.8485C398.111 33.1267 398.473 32.332 398.754 31.4643C399.053 30.5763 399.265 29.6835 399.389 28.7858C399.531 27.8678 399.581 27.0227 399.538 26.2506C399.51 25.7487 399.394 25.4066 399.19 25.2243C398.986 25.0421 398.643 24.9644 398.161 24.9913C397.504 25.0279 396.84 25.2779 396.169 25.7413C395.516 26.1844 394.978 26.7759 394.555 27.516C394.13 28.2367 393.942 29.0411 393.992 29.929C394.002 30.1028 394.001 30.2674 393.99 30.4229ZM425.792 38.4379C425.059 38.4788 424.353 38.3245 423.675 37.975C423.018 37.6438 422.463 37.0648 422.01 36.238C421.575 35.3909 421.318 34.2435 421.237 32.7957C421.196 32.0622 421.187 31.3753 421.209 30.7351C421.232 30.0948 421.277 29.5114 421.344 28.9848C421.016 28.3061 420.827 27.5324 420.779 26.6637C420.725 25.6985 420.867 24.7709 421.205 23.8807C421.561 22.9701 422.067 22.1577 422.724 21.4433C423.401 20.7279 424.192 20.1513 425.097 19.7136C426.02 19.2554 427.022 18.9963 428.103 18.936C429.416 18.8628 430.541 19.2551 431.48 20.1128C432.418 20.9706 432.938 22.3067 433.039 24.1212C433.081 24.874 433.067 25.6494 432.995 26.4473C432.922 27.2259 432.801 28.0072 432.632 28.7911C433.643 28.5218 434.6 28.1393 435.501 27.6436C436.422 27.1469 437.272 26.5767 438.049 25.9331C437.849 25.4795 437.587 25.1166 437.262 24.8442C436.936 24.5526 436.521 24.3918 436.015 24.3619C435.219 24.3095 434.797 23.8683 434.751 23.0383C434.726 22.5943 434.843 22.2586 435.101 22.0312C435.379 21.8027 435.749 21.6755 436.213 21.6497C436.753 21.6196 437.373 21.6141 438.071 21.6333C438.788 21.6513 439.659 21.6512 440.685 21.6327C441.181 20.1141 441.818 18.6941 442.597 17.3727C443.393 16.0309 444.257 14.85 445.187 13.83C446.117 12.7906 447.049 11.9738 447.984 11.3795C448.937 10.7648 449.829 10.4343 450.659 10.388C451.219 10.3568 451.679 10.4473 452.039 10.6596C452.419 10.8708 452.623 11.2273 452.651 11.7292C452.678 12.2118 452.544 12.5968 452.251 12.8843C451.975 13.1514 451.591 13.3761 451.097 13.5585L451.068 13.5601C449.455 14.1342 448.044 15.0552 446.837 16.323C445.628 17.5715 444.697 19.279 444.044 21.4455C446.009 21.2778 447.709 21.0281 449.143 20.6964C450.575 20.3454 451.739 20.0288 452.633 19.7466C453.546 19.444 454.166 19.2836 454.494 19.2653C454.88 19.2437 455.176 19.3434 455.382 19.5643C455.608 19.7841 455.731 20.087 455.753 20.4731C455.778 20.9364 455.342 21.4448 454.443 21.9983C453.545 22.5519 452.237 23.0508 450.519 23.4952C448.8 23.9202 446.714 24.201 444.263 24.3377C443.993 24.3528 443.712 24.3587 443.422 24.3556C443.423 24.3749 443.424 24.3942 443.425 24.4135C443.302 25.3304 443.151 26.4426 442.972 27.7499C442.792 29.0379 442.607 30.4037 442.416 31.8472C442.224 33.2714 442.04 34.6468 441.862 35.9734C441.703 37.299 441.556 38.4787 441.42 39.5125C441.304 40.5453 441.22 41.2954 441.168 41.763C441.103 42.3282 440.894 42.7465 440.541 43.0179C440.189 43.3086 439.83 43.4642 439.463 43.4846C439.058 43.5072 438.673 43.3834 438.31 43.1133C437.947 42.8624 437.748 42.4184 437.713 41.7814C437.702 41.5884 437.737 41.1798 437.819 40.5556C437.9 39.9315 437.993 39.1711 438.098 38.2745C438.223 37.3962 438.335 36.4508 438.434 35.4384C438.531 34.4068 438.609 33.3761 438.668 32.3466C438.726 31.2978 438.729 30.3197 438.679 29.4125C438.664 29.1422 438.65 28.8913 438.637 28.6596C436.727 30.1796 434.459 31.1775 431.833 31.6531C431.378 32.8789 430.831 34.0035 430.191 35.0267C429.55 36.0306 428.849 36.8345 428.089 37.4385C427.349 38.0606 426.584 38.3937 425.792 38.4379ZM424.812 28.1525C425.299 28.5513 425.924 28.8263 426.688 28.9773C427.451 29.1284 428.211 29.2119 428.967 29.2278C429.114 28.387 429.222 27.5387 429.29 26.6829C429.358 25.8078 429.371 25.0035 429.33 24.27C429.308 23.8839 429.184 23.5616 428.957 23.3032C428.748 23.0438 428.422 22.9264 427.978 22.9511C427.206 22.9942 426.493 23.2276 425.839 23.6513C425.185 24.0751 424.701 24.5958 424.387 25.2136C424.548 25.3208 424.683 25.4875 424.792 25.7138C424.902 25.9401 424.968 26.2655 424.992 26.6902C424.997 26.7867 424.978 26.9621 424.934 27.2162C424.91 27.4693 424.869 27.7814 424.812 28.1525ZM428.22 31.9707C427.6 31.9665 426.969 31.9339 426.327 31.8729C425.683 31.7926 425.065 31.6528 424.473 31.4535C424.447 32.0165 424.445 32.5103 424.469 32.935C424.47 32.9543 424.473 33.0026 424.477 33.0798C424.488 33.2728 424.519 33.4937 424.572 33.7425C424.625 33.9913 424.762 34.2063 424.985 34.3875C425.207 34.5494 425.569 34.6163 426.071 34.5884C426.496 34.5647 426.888 34.3104 427.249 33.8256C427.628 33.3398 427.952 32.7214 428.22 31.9707ZM469.627 43.0517C468.546 43.112 467.557 43.0993 466.662 43.0137C465.767 42.9474 464.888 42.8028 464.024 42.5799C463.159 42.357 462.222 42.051 461.213 41.662C460.797 41.4915 460.448 41.3077 460.166 41.1104C459.884 40.9131 459.731 40.6022 459.707 40.1775C459.673 39.5598 459.839 39.0761 460.207 38.7264C460.557 38.3971 461.06 38.2142 461.716 38.1776C462.063 38.1582 462.514 38.2492 463.067 38.4508C463.622 38.6716 464.255 38.917 464.967 39.1871C465.7 39.4755 466.507 39.7112 467.388 39.8944C468.271 40.0969 469.214 40.1702 470.218 40.1142C471.241 40.0572 472.173 39.5793 473.013 38.6804C473.854 37.7815 474.502 36.5449 474.956 34.9705C475.431 33.4143 475.61 31.5939 475.494 29.5091C475.467 29.0265 475.428 28.5059 475.378 27.9471C475.326 27.3691 475.273 26.7621 475.218 26.1262C474.596 27.4776 473.912 28.7453 473.164 29.9294C472.417 31.1135 471.629 32.0869 470.8 32.8496C469.99 33.5918 469.15 33.9872 468.282 34.0356C467.22 34.0948 466.434 33.8869 465.923 33.4119C465.431 32.9166 465.153 32.1091 465.091 30.9895C465.038 30.0437 465.048 29.0072 465.121 27.88C465.212 26.7325 465.35 25.5727 465.537 24.4005C465.723 23.2283 465.951 22.1118 466.221 21.0512C466.51 19.9701 466.825 19.0328 467.168 18.2391C467.427 17.6631 467.855 17.3585 468.453 17.3251C468.84 17.3036 469.236 17.4655 469.642 17.8107C470.068 18.1549 470.298 18.6358 470.333 19.2535C470.352 19.601 470.293 20.1077 470.156 20.7737C470.019 21.4397 469.848 22.1947 469.643 23.0387C469.457 23.8624 469.264 24.7349 469.063 25.6561C468.862 26.5581 468.698 27.4482 468.573 28.3265C468.447 29.1856 468.403 29.9625 468.442 30.6575C468.446 30.7347 468.506 30.7701 468.622 30.7636C468.854 30.7507 469.152 30.5404 469.516 30.1328C469.899 29.7049 470.314 29.1589 470.761 28.495C471.226 27.8107 471.688 27.0685 472.147 26.2684C472.624 25.4479 473.082 24.6381 473.522 23.8391C473.962 23.04 474.357 22.3112 474.707 21.6527C474.632 21.3471 474.578 21.079 474.546 20.8484C474.532 20.5975 474.52 20.3851 474.511 20.2114C474.466 19.42 474.565 18.7561 474.806 18.2199C475.067 17.6825 475.612 17.3907 476.442 17.3444C476.982 17.3143 477.409 17.4938 477.721 17.8831C478.032 18.253 478.207 18.7951 478.247 19.5093C478.264 19.8181 478.236 20.1779 478.162 20.5887C478.087 20.9801 477.929 21.6086 477.686 22.4741L477.955 21.5587C478.226 23.2864 478.456 24.8226 478.648 26.1673C478.858 27.511 479 28.8488 479.075 30.1808C479.215 32.6902 478.911 34.8855 478.164 36.7667C477.437 38.6661 476.339 40.1602 474.87 41.249C473.421 42.3367 471.673 42.9376 469.627 43.0517ZM488.821 34.9526C487.45 35.029 486.323 34.6078 485.439 33.6889C484.554 32.7507 484.066 31.4612 483.974 29.8204C483.945 29.2993 483.983 28.7646 484.088 28.2166C484.212 27.6675 484.368 27.1554 484.554 26.6803C484.429 26.513 484.32 26.2964 484.228 26.0305C484.154 25.7441 484.106 25.4079 484.084 25.0219C484.014 23.7672 484.172 22.6062 484.558 21.5391C484.943 20.4527 485.49 19.5024 486.2 18.6883C486.91 17.8742 487.706 17.2295 488.59 16.7542C489.474 16.279 490.379 16.0155 491.305 15.9638C492.888 15.8756 494.211 16.3343 495.274 17.34C496.356 18.3447 496.96 19.9666 497.085 22.2058C497.147 23.3254 497.037 24.4739 496.754 25.6515C496.471 26.8291 496.06 27.9654 495.521 29.0605C495 30.1351 494.376 31.109 493.651 31.9821C492.944 32.8541 492.17 33.5556 491.328 34.0867C490.506 34.6166 489.67 34.9053 488.821 34.9526ZM487.812 25.1916C487.92 25.3986 487.982 25.6469 487.998 25.9364C488.014 26.226 487.973 26.5284 487.875 26.8437C487.776 27.159 487.683 27.5805 487.597 28.1081C487.509 28.6165 487.491 29.3436 487.544 30.2895C487.558 30.5404 487.599 30.7511 487.666 30.9216C487.752 31.0717 487.921 31.1398 488.171 31.1258C488.828 31.0892 489.434 30.8424 489.989 30.3855C490.564 29.9274 491.063 29.338 491.488 28.6173C491.932 27.8955 492.294 27.1007 492.575 26.2331C492.874 25.3451 493.086 24.4522 493.21 23.5546C493.352 22.6366 493.402 21.7915 493.359 21.0193C493.331 20.5175 493.215 20.1754 493.011 19.9931C492.807 19.8108 492.464 19.7332 491.982 19.7601C491.325 19.7967 490.662 20.0467 489.99 20.5101C489.337 20.9531 488.799 21.5447 488.376 22.2847C487.951 23.0055 487.764 23.8098 487.813 24.6978C487.823 24.8715 487.822 25.0361 487.812 25.1916ZM512.309 33.9915C511.865 34.0163 511.449 33.8555 511.062 33.5092C510.695 33.1811 510.488 32.602 510.442 31.772C510.408 31.1543 510.408 30.2926 510.443 29.1869C510.497 28.0609 510.629 26.6109 510.84 24.8371C510.242 26.2646 509.606 27.5393 508.933 28.6612C508.259 29.7831 507.583 30.6728 506.903 31.3303C506.242 31.9675 505.592 32.3038 504.955 32.3393C503.932 32.3964 503.104 32.1327 502.471 31.5484C501.837 30.9447 501.472 29.7743 501.375 28.037C501.329 27.2069 501.344 26.2669 501.421 25.217C501.518 24.166 501.652 23.1129 501.826 22.0576C502 21.0023 502.179 20.0628 502.366 19.2392C502.571 18.3951 502.758 17.765 502.929 17.3489C503.064 16.9928 503.242 16.7118 503.462 16.5059C503.703 16.2988 504.016 16.1846 504.402 16.163C505.02 16.1286 505.504 16.3049 505.855 16.692C506.205 17.0791 506.393 17.4849 506.416 17.9096C506.434 18.2378 506.384 18.715 506.264 19.3413C506.163 19.9666 506.027 20.6615 505.857 21.4262C505.706 22.1898 505.546 22.9732 505.378 23.7765C505.21 24.5798 505.068 25.3332 504.952 26.0367C504.856 26.7392 504.821 27.3317 504.848 27.8143C504.882 28.4127 505.13 28.699 505.593 28.6731C505.863 28.6581 506.196 28.3781 506.592 27.8332C507.007 27.2873 507.431 26.5665 507.866 25.671C508.318 24.755 508.766 23.7619 509.21 22.6915C509.672 21.6008 510.085 20.5031 510.449 19.3984C510.832 18.2733 511.152 17.2389 511.409 16.2952C511.57 15.7053 511.808 15.2854 512.123 15.0354C512.438 14.7855 512.808 14.6487 513.233 14.625C513.889 14.5884 514.401 14.7438 514.769 15.0912C515.156 15.4375 515.369 15.9485 515.407 16.6241C515.424 16.933 515.405 17.4569 515.349 18.1958C515.293 18.9347 515.216 19.8007 515.116 20.7937C515.036 21.7857 514.93 22.8373 514.798 23.9483C514.667 25.0594 514.534 26.1511 514.4 27.2236C514.286 28.295 514.166 29.2795 514.042 30.1771C513.917 31.0554 513.811 31.7584 513.724 32.2861C513.574 33.069 513.368 33.5452 513.106 33.7147C512.845 33.8842 512.579 33.9764 512.309 33.9915ZM521.248 33.464C520.766 33.4909 520.341 33.3403 519.974 33.0122C519.627 32.6831 519.435 32.1903 519.398 31.534C519.382 31.2445 519.394 30.7694 519.435 30.1088C519.494 29.4278 519.566 28.6492 519.653 27.773C519.759 26.8957 519.853 25.9804 519.936 25.027C520.037 24.0725 520.113 23.1679 520.162 22.3132C520.23 21.4574 520.267 20.7292 520.273 20.1287C520.27 19.393 520.434 18.861 520.764 18.5328C521.094 18.1853 521.5 17.998 521.982 17.9711C522.368 17.9496 522.721 18.0268 523.041 18.2026C523.378 18.358 523.602 18.7231 523.712 19.2979C523.839 19.8523 523.894 20.6625 523.876 21.7285C524.639 20.1369 525.421 18.7088 526.222 17.4443C527.042 16.1786 527.915 15.1618 528.841 14.3938C530.375 13.0883 531.789 12.3995 533.082 12.3274C533.816 12.2865 534.307 12.4237 534.557 12.7389C534.807 13.0542 534.942 13.3855 534.961 13.733C534.974 13.9646 534.928 14.1802 534.823 14.3797C534.737 14.5781 534.536 14.7926 534.22 15.0233C533.904 15.2539 533.417 15.5618 532.761 15.9469C531.88 16.4608 531.016 17.1189 530.17 17.9212C529.343 18.7225 528.528 19.7361 527.726 20.962C526.923 22.188 526.125 23.6847 525.333 25.4522C524.541 27.2197 523.738 29.317 522.924 31.744C522.787 32.41 522.56 32.8584 522.244 33.089C521.947 33.3186 521.615 33.4436 521.248 33.464ZM200.499 91.0327C199.341 91.0973 198.527 90.9103 198.057 90.4718C197.608 90.0515 197.361 89.4456 197.317 88.6542C197.13 85.2954 197.562 81.7569 198.613 78.0386C199.683 74.2999 201.263 70.5231 203.355 66.708C203.705 66.0495 204.003 65.6553 204.247 65.5255C204.492 65.3957 204.768 65.3222 205.077 65.305C205.521 65.2802 205.916 65.4131 206.261 65.7037C206.626 65.9932 206.822 66.3888 206.85 66.8907C206.859 67.0452 206.719 67.479 206.429 68.1922C206.14 68.9054 205.755 69.8176 205.275 70.9287C204.814 72.0388 204.313 73.2963 203.771 74.7012C203.229 76.0869 202.701 77.5493 202.186 79.0883C201.691 80.6263 201.274 82.1696 200.934 83.7182C201.544 82.8516 202.24 81.9608 203.021 81.0458C203.821 80.1105 204.654 79.2508 205.521 78.4667C206.386 77.6633 207.231 77.0159 208.055 76.5246C208.879 76.0139 209.629 75.7398 210.304 75.7021C210.941 75.6666 211.539 75.7882 212.096 76.0669C212.673 76.3445 213.154 76.8018 213.538 77.4388C213.922 78.0757 214.143 78.9154 214.201 79.9578C214.265 81.0967 214.002 82.2828 213.412 83.5162C212.842 84.7485 211.967 85.9107 210.789 87.0026C209.63 88.0935 208.18 89.007 206.44 89.743C204.719 90.478 202.739 90.9079 200.499 91.0327ZM201.532 87.664C203.011 87.4654 204.335 87.072 205.503 86.4841C206.69 85.8951 207.696 85.1903 208.522 84.3698C209.348 83.5492 209.968 82.7013 210.384 81.8262C210.799 80.9317 210.985 80.0984 210.942 79.3262C210.932 79.1525 210.879 79.0683 210.783 79.0737C210.377 79.0963 209.876 79.3082 209.279 79.7094C208.68 80.0913 208.031 80.6019 207.331 81.2412C206.631 81.8805 205.924 82.5783 205.211 83.3345C204.498 84.0907 203.824 84.8447 203.188 85.5966C202.552 86.3485 202 87.0377 201.532 87.664ZM221.473 89.9504C220.276 90.0172 219.288 89.656 218.508 88.8668C217.727 88.0584 217.284 86.7179 217.18 84.8455C217.113 83.6487 217.182 82.4444 217.385 81.2325C217.607 80.0002 217.938 78.8296 218.38 77.7206C218.84 76.5913 219.384 75.5831 220.012 74.6961C220.66 73.808 221.385 73.0995 222.188 72.5707C222.99 72.0225 223.835 71.7236 224.723 71.6741C226.229 71.5902 227.429 71.9299 228.324 72.6933C229.218 73.4567 229.7 74.4657 229.77 75.7204C229.824 76.6856 229.603 77.579 229.107 78.4005C228.628 79.2017 227.953 79.9365 227.08 80.6048C226.207 81.2731 225.225 81.8894 224.133 82.4537C223.042 83.018 221.919 83.5357 220.764 84.0067C220.706 84.707 220.692 85.3274 220.722 85.8679C220.741 86.196 220.933 86.3499 221.3 86.3295C222.169 86.281 223.088 86.0942 224.057 85.7691C225.045 85.4236 226.038 85.0003 227.036 84.4993C228.033 83.979 228.991 83.4511 229.91 82.9158C230.828 82.3612 231.661 81.8404 232.408 81.3533C233.174 80.8459 233.8 80.4431 234.287 80.1449C234.792 79.8263 235.121 79.6626 235.276 79.654C235.701 79.6304 236.016 79.7386 236.223 79.9788C236.43 80.219 236.542 80.4838 236.558 80.7734C236.566 80.9085 236.322 81.2222 235.826 81.7146C235.35 82.2058 234.686 82.7947 233.834 83.4813C233 84.1474 232.051 84.849 230.988 85.5859C229.944 86.3025 228.85 86.9928 227.706 87.6569C226.58 88.3006 225.476 88.8268 224.395 89.2356C223.335 89.6627 222.361 89.9009 221.473 89.9504ZM221.112 81.4023C221.878 80.8948 222.633 80.3687 223.377 79.8237C224.139 79.2584 224.763 78.6427 225.249 77.9766C225.734 77.2913 225.952 76.5143 225.903 75.6456C225.889 75.3947 225.813 75.2344 225.673 75.1647C225.533 75.0757 225.337 75.0382 225.086 75.0522C224.41 75.0899 223.809 75.4235 223.283 76.0531C222.776 76.6817 222.336 77.4807 221.964 78.4502C221.611 79.3994 221.327 80.3834 221.112 81.4023ZM236.698 89.2177C236.08 89.2522 235.51 89.1097 234.989 88.7902C234.469 88.49 234.049 88.0777 233.729 87.5534C233.409 87.0097 233.23 86.4194 233.195 85.7824C233.128 84.5856 233.324 83.4032 233.781 82.2352C234.258 81.0662 234.903 79.9459 235.714 78.8744C236.526 77.8029 237.419 76.814 238.395 75.9076C239.389 74.9808 240.38 74.18 241.369 73.5053C242.377 72.8295 243.296 72.2941 244.126 71.8993C244.975 71.5034 245.641 71.292 246.124 71.2651C246.684 71.2339 247.144 71.3341 247.506 71.5657C247.885 71.7768 248.089 72.1334 248.117 72.6353C248.126 72.7897 248.094 72.9173 248.022 73.0181C248.276 73.0621 248.487 73.1955 248.655 73.4186C248.822 73.6416 248.918 73.9848 248.944 74.448C248.955 74.6411 248.935 75.1456 248.883 75.9618C248.832 76.7779 248.781 77.7683 248.73 78.9329C248.698 80.0965 248.717 81.3057 248.787 82.5604C248.797 82.7534 248.836 82.9255 248.903 83.0767C248.968 83.2086 249.097 83.2692 249.29 83.2584C250.062 83.2154 250.836 83.0174 251.61 82.6644C252.402 82.291 253.162 81.8517 253.889 81.3465C254.634 80.8208 255.303 80.3091 255.895 79.8114C256.505 79.2933 257.014 78.868 257.421 78.5355C257.847 78.1826 258.127 78.0023 258.262 77.9948C258.918 77.9582 259.265 78.2681 259.302 78.9244C259.311 79.0981 259.119 79.4767 258.726 80.0602C258.351 80.6233 257.826 81.2819 257.151 82.0359C256.476 82.7706 255.714 83.5102 254.864 84.2547C254.033 84.9787 253.157 85.5891 252.236 86.0858C251.334 86.5815 250.449 86.8535 249.581 86.9019C248.519 86.9611 247.694 86.7554 247.106 86.2847C246.538 85.813 246.114 85.1589 245.835 84.3224C245.574 83.4656 245.404 82.4973 245.325 81.4173C244.419 82.8814 243.466 84.1931 242.465 85.3526C241.483 86.4917 240.498 87.4083 239.511 88.1024C238.523 88.7964 237.585 89.1682 236.698 89.2177ZM246.139 74.1397C244.298 75.1525 242.657 76.2896 241.217 77.551C239.776 78.7932 238.647 80.076 237.83 81.3996C237.032 82.722 236.666 83.972 236.732 85.1495C236.75 85.4776 236.914 85.6331 237.223 85.6159C237.59 85.5954 238.06 85.3562 238.635 84.8982C239.229 84.439 239.864 83.8421 240.539 83.1074C241.214 82.3533 241.884 81.5221 242.55 80.6136C243.214 79.6858 243.83 78.7414 244.396 77.7804C244.962 76.8194 245.405 75.904 245.724 75.0342C245.842 74.7178 245.98 74.4197 246.139 74.1397ZM268.107 87.6697C267.663 87.6945 267.247 87.5337 266.86 87.1874C266.493 86.8593 266.287 86.2803 266.24 85.4502C266.206 84.8325 266.206 83.9708 266.241 82.8651C266.295 81.7391 266.427 80.2891 266.638 78.5153C266.04 79.9428 265.404 81.2175 264.731 82.3394C264.057 83.4613 263.381 84.351 262.701 85.0085C262.04 85.6457 261.39 85.982 260.753 86.0176C259.73 86.0746 258.902 85.8109 258.269 85.2266C257.636 84.623 257.27 83.4525 257.173 81.7152C257.127 80.8851 257.142 79.9452 257.219 78.8952C257.316 77.8443 257.451 76.7911 257.624 75.7358C257.798 74.6805 257.978 73.741 258.164 72.9174C258.369 72.0733 258.556 71.4433 258.727 71.0271C258.862 70.6711 259.04 70.3901 259.261 70.1841C259.501 69.9771 259.814 69.8628 260.2 69.8413C260.818 69.8068 261.302 69.9831 261.653 70.3702C262.003 70.7573 262.191 71.1632 262.214 71.5878C262.233 71.916 262.182 72.3932 262.062 73.0196C261.961 73.6448 261.826 74.3397 261.655 75.1044C261.504 75.868 261.344 76.6514 261.176 77.4547C261.008 78.258 260.866 79.0114 260.75 79.7149C260.654 80.4174 260.619 81.0099 260.646 81.4925C260.68 82.0909 260.928 82.3772 261.391 82.3514C261.661 82.3363 261.994 82.0563 262.39 81.5114C262.805 80.9655 263.229 80.2447 263.664 79.3492C264.116 78.4333 264.564 77.4401 265.008 76.3697C265.47 75.279 265.883 74.1813 266.247 73.0766C266.63 71.9516 266.95 70.9172 267.207 69.9734C267.368 69.3835 267.606 68.9636 267.921 68.7137C268.236 68.4637 268.606 68.3269 269.031 68.3033C269.687 68.2667 270.199 68.4221 270.567 68.7694C270.955 69.1158 271.167 69.6267 271.205 70.3023C271.222 70.6112 271.203 71.1351 271.147 71.874C271.091 72.6129 271.014 73.4789 270.914 74.472C270.834 75.464 270.728 76.5155 270.596 77.6266C270.465 78.7376 270.332 79.8294 270.198 80.9018C270.084 81.9732 269.964 82.9577 269.84 83.8553C269.715 84.7337 269.609 85.4367 269.522 85.9643C269.372 86.7472 269.166 87.2234 268.905 87.3929C268.643 87.5624 268.377 87.6547 268.107 87.6697ZM296.174 70.159C296.187 70.3907 296.121 70.5977 295.977 70.78C295.832 70.9623 295.646 71.1082 295.42 71.2177C295.099 71.3711 294.54 71.5766 293.741 71.8341C292.942 72.0917 291.971 72.3878 290.828 72.7227C289.704 73.0564 288.494 73.4047 287.197 73.7674C285.9 74.1108 284.602 74.4446 283.303 74.7687C282.904 76.6499 282.499 78.5894 282.088 80.5874C281.675 82.5661 281.261 84.5158 280.846 86.4366C280.69 87.123 280.487 87.6475 280.236 88.01C279.987 88.3918 279.533 88.601 278.877 88.6376C278.163 88.6775 277.667 88.4727 277.391 88.0234C277.134 87.5924 277.071 86.9859 277.202 86.2041C277.587 84.0721 277.941 82.0869 278.264 80.2488C278.607 78.4095 278.882 76.9225 279.09 75.7879C277.943 76.0455 276.938 76.2564 276.076 76.4207C275.212 76.5656 274.597 76.6387 274.229 76.6398C273.822 76.6238 273.475 76.4786 273.188 76.2041C272.902 75.9296 272.756 75.5795 272.752 75.1537C272.769 74.7655 272.925 74.4277 273.218 74.1402C273.511 73.8334 273.868 73.6392 274.29 73.5577C274.885 73.4664 275.652 73.3365 276.591 73.1679C277.531 72.9993 278.566 72.8061 279.696 72.5882C279.892 71.5897 280.125 70.5601 280.395 69.4995C280.664 68.4195 280.945 67.3872 281.239 66.4027C281.551 65.3978 281.85 64.5194 282.138 63.7676C282.425 63.0157 282.695 62.4682 282.946 62.125C283.145 61.8622 283.395 61.6546 283.696 61.5023C284.017 61.3489 284.331 61.2635 284.64 61.2463C285.046 61.2237 285.382 61.3502 285.649 61.6258C285.916 61.9013 286.06 62.2321 286.082 62.6182C286.09 62.7726 286.09 62.9372 286.08 63.112C286.07 63.2676 286.04 63.4241 285.99 63.5818C285.677 64.5674 285.347 65.7573 284.999 67.1515C284.67 68.5447 284.329 70.074 283.976 71.7396C285.412 71.4465 286.819 71.1551 288.197 70.8652C289.593 70.555 290.856 70.2716 291.984 70.0151C293.13 69.7382 294.046 69.5031 294.733 69.31C295.111 69.1533 295.441 69.164 295.722 69.3419C296.002 69.5006 296.153 69.773 296.174 70.159ZM293.468 84.3827C292.928 84.4129 292.435 84.2564 291.99 83.9133C291.564 83.5692 291.328 82.9821 291.282 82.152C291.257 81.708 291.28 81.0774 291.351 80.2602C291.44 79.442 291.565 78.554 291.725 77.5963C291.883 76.6193 292.062 75.6508 292.26 74.691C292.477 73.73 292.691 72.8758 292.901 72.1283C293.11 71.3615 293.301 70.7893 293.474 70.4118C293.7 69.9538 293.916 69.6706 294.123 69.5623C294.348 69.4336 294.567 69.3633 294.78 69.3514C295.166 69.3299 295.529 69.4258 295.87 69.6392C296.231 69.8514 296.433 70.3533 296.477 71.1447C296.494 71.4536 296.464 71.9587 296.387 72.6601C296.309 73.3421 296.208 74.1416 296.085 75.0586C295.962 75.9755 295.821 76.9225 295.663 77.8995C295.524 78.8754 295.382 79.8031 295.237 80.6825C295.111 81.5416 295.006 82.2639 294.922 82.8494C294.853 83.3374 294.67 83.7058 294.374 83.9547C294.098 84.2217 293.796 84.3644 293.468 84.3827ZM295.807 66.4187C295.17 66.4542 294.571 66.3037 294.01 65.967C293.448 65.6111 293.145 65.0374 293.101 64.246C293.064 63.5897 293.199 63.0497 293.504 62.626C293.81 62.2023 294.18 61.8913 294.614 61.6928C295.066 61.4739 295.466 61.3548 295.814 61.3354C296.161 61.316 296.552 61.3717 296.985 61.5025C297.417 61.6139 297.799 61.8541 298.129 62.2229C298.477 62.5714 298.671 63.0931 298.71 63.788C298.736 64.2513 298.595 64.6851 298.289 65.0895C297.981 65.4745 297.592 65.7867 297.121 66.0259C296.67 66.2641 296.232 66.395 295.807 66.4187ZM303.934 87.6181C303.452 87.645 303.029 87.5234 302.665 87.2532C302.302 87.0023 302.117 86.4511 302.108 85.5996C302.094 84.6516 302.107 83.6634 302.146 82.6349C302.186 81.6065 302.238 80.645 302.305 79.7506C302.447 77.787 302.421 76.2781 302.227 75.2239C302.051 74.1494 301.708 73.394 301.2 72.9576C300.711 72.5201 300.066 72.2463 299.266 72.136C298.876 72.0803 298.559 71.9527 298.315 71.7533C298.071 71.5346 297.938 71.2418 297.918 70.8751C297.891 70.3925 298.066 70.0632 298.444 69.8873C298.802 69.7124 299.27 69.6088 299.85 69.5765C300.294 69.5518 300.865 69.549 301.563 69.5681C302.279 69.5669 303.043 69.5534 303.855 69.5275C304.407 67.2699 305.067 65.3936 305.836 63.8985C306.604 62.4034 307.467 61.2128 308.425 60.3268C309.381 59.4215 310.41 58.7735 311.511 58.3829C312.612 57.973 313.76 57.7347 314.957 57.668C316.443 57.5851 317.216 58.0745 317.275 59.1362C317.304 59.6574 317.076 60.0671 316.589 60.3654C316.102 60.6636 315.352 60.9281 314.338 61.1589C313.134 61.439 312.085 61.8945 311.191 62.5252C310.316 63.1549 309.56 64.02 308.925 65.1204C308.308 66.2198 307.786 67.6237 307.359 69.3321C310.039 69.1246 312.231 68.8571 313.936 68.5297C315.641 68.2023 316.951 67.9065 317.866 67.6425C318.799 67.3582 319.449 67.2057 319.815 67.1853C320.337 67.1562 320.662 67.2639 320.792 67.5084C320.941 67.7518 321.024 68.0183 321.04 68.3079C321.058 68.636 320.768 68.9911 320.17 69.373C319.777 69.6272 319.145 69.9239 318.273 70.2629C317.4 70.5827 316.373 70.911 315.191 71.248C314.009 71.5657 312.756 71.8485 311.434 72.0965C310.13 72.3241 308.85 72.4729 307.596 72.5429C307.287 72.5601 307.007 72.5757 306.756 72.5897C306.606 73.7211 306.46 74.9201 306.318 76.1867C306.193 77.4329 306.087 78.649 305.998 79.8351C305.909 81.0212 305.834 82.1001 305.772 83.0717C305.729 84.0423 305.714 84.8177 305.727 85.3978C305.748 86.1131 305.594 86.6542 305.266 87.021C304.938 87.3879 304.494 87.5869 303.934 87.6181ZM327.346 84.3667C326.902 84.3915 326.486 84.2307 326.099 83.8844C325.732 83.5563 325.526 82.9772 325.479 82.1472C325.445 81.5295 325.445 80.6678 325.48 79.5621C325.534 78.4361 325.666 76.9861 325.877 75.2123C325.279 76.6398 324.643 77.9145 323.97 79.0364C323.297 80.1583 322.62 81.048 321.94 81.7055C321.279 82.3427 320.629 82.679 319.992 82.7145C318.969 82.7716 318.141 82.5079 317.508 81.9236C316.875 81.3199 316.509 80.1495 316.412 78.4122C316.366 77.5821 316.381 76.6421 316.458 75.5922C316.555 74.5412 316.69 73.4881 316.863 72.4328C317.037 71.3775 317.217 70.438 317.403 69.6144C317.608 68.7703 317.795 68.1402 317.966 67.7241C318.101 67.368 318.279 67.087 318.5 66.8811C318.74 66.6741 319.053 66.5598 319.439 66.5382C320.057 66.5038 320.541 66.6801 320.892 67.0672C321.242 67.4543 321.43 67.8601 321.453 68.2848C321.472 68.613 321.421 69.0902 321.301 69.7165C321.2 70.3418 321.065 71.0367 320.894 71.8014C320.743 72.565 320.584 73.3484 320.415 74.1517C320.247 74.955 320.105 75.7084 319.989 76.4119C319.893 77.1144 319.858 77.7069 319.885 78.1895C319.919 78.7879 320.167 79.0742 320.63 79.0483C320.901 79.0333 321.233 78.7533 321.629 78.2084C322.044 77.6625 322.468 76.9417 322.903 76.0462C323.355 75.1302 323.803 74.1371 324.247 73.0667C324.709 71.976 325.122 70.8783 325.486 69.7736C325.869 68.6486 326.189 67.6141 326.446 66.6704C326.607 66.0805 326.845 65.6606 327.16 65.4107C327.475 65.1607 327.845 65.0239 328.27 65.0002C328.926 64.9636 329.438 65.119 329.806 65.4664C330.194 65.8127 330.406 66.3237 330.444 66.9993C330.461 67.3082 330.442 67.8321 330.386 68.571C330.33 69.3099 330.253 70.1759 330.153 71.1689C330.073 72.161 329.967 73.2125 329.835 74.3235C329.704 75.4346 329.571 76.5263 329.437 77.5988C329.323 78.6702 329.203 79.6547 329.079 80.5523C328.954 81.4306 328.848 82.1336 328.761 82.6613C328.611 83.4442 328.405 83.9204 328.144 84.0899C327.882 84.2594 327.616 84.3517 327.346 84.3667ZM340.949 83.7535C339.212 83.8503 337.812 83.3959 336.749 82.3902C335.704 81.3641 335.126 79.8569 335.015 77.8687C334.955 76.7877 335.029 75.5152 335.238 74.0513C335.446 72.5681 335.736 71.0029 336.109 69.3556C336.5 67.6879 336.921 66.0379 337.372 64.4056C337.843 62.7722 338.31 61.2551 338.774 59.8545C339.238 58.4538 339.647 57.2789 340.001 56.3297C340.309 55.5961 340.781 55.2116 341.418 55.176C341.823 55.1534 342.158 55.2606 342.423 55.4976C342.708 55.7334 342.865 56.1313 342.897 56.6911C342.912 56.9613 342.809 57.5576 342.59 58.4799C342.37 59.4023 342.075 60.5418 341.706 61.8984C341.354 63.2348 340.97 64.6794 340.553 66.2323C340.156 67.7842 339.778 69.3446 339.42 70.9137C339.081 72.4816 338.815 73.9584 338.621 75.344C338.426 76.7103 338.355 77.8664 338.408 78.8123C338.43 79.1983 338.553 79.5013 338.778 79.7211C339.023 79.9398 339.328 80.0389 339.695 80.0185C340.487 79.9743 341.289 79.7844 342.103 79.4485C342.936 79.1116 343.746 78.6986 344.532 78.2094C345.337 77.7191 346.093 77.2026 346.798 76.6598C347.504 76.117 348.134 75.6075 348.688 75.1312C349.261 74.6346 349.723 74.2409 350.075 73.9502C350.537 73.5566 350.855 73.3549 351.028 73.3452C351.685 73.3086 352.031 73.6088 352.066 74.2458C352.075 74.4002 351.899 74.7295 351.54 75.2336C351.236 75.6766 350.803 76.2429 350.241 76.9326C349.679 77.6223 349.023 78.3559 348.272 79.1336C347.54 79.8909 346.748 80.6128 345.895 81.2993C345.062 81.9847 344.222 82.5544 343.376 83.0082C342.53 83.462 341.721 83.7104 340.949 83.7535ZM367.265 82.3152C366.435 82.3614 365.84 82.2785 365.48 82.0662C365.139 81.8528 364.956 81.5242 364.931 81.0802C364.91 80.6941 365.026 80.3585 365.282 80.0731C365.536 79.7685 366.118 79.4456 367.028 79.1044C368.091 78.716 369.093 78.2825 370.035 77.804C370.994 77.3051 371.768 76.7779 372.357 76.2223C372.965 75.6655 373.253 75.0976 373.221 74.5185C373.199 74.1325 373.048 73.8601 372.768 73.7015C372.508 73.5417 372.204 73.4715 371.856 73.4909C371.567 73.507 371.145 73.579 370.59 73.7067C370.054 73.8141 369.462 73.9536 368.813 74.1253C368.163 74.2777 367.532 74.4194 366.92 74.5504C366.326 74.661 365.816 74.7281 365.391 74.7518C364.388 74.8077 363.632 74.6272 363.125 74.2101C362.616 73.7737 362.342 73.1984 362.302 72.4842C362.281 72.0981 362.454 71.556 362.822 70.8578C363.189 70.1596 363.688 69.3863 364.319 68.5378C364.949 67.6894 365.657 66.8367 366.442 65.9797C367.227 65.1227 368.025 64.3327 368.837 63.6097C369.666 62.8663 370.456 62.2705 371.206 61.822C371.954 61.3543 372.599 61.1054 373.139 61.0752C373.757 61.0408 374.26 61.2064 374.648 61.572C375.056 61.9365 375.278 62.447 375.314 63.1033C375.332 63.4121 375.321 63.7516 375.284 64.1215C375.245 64.4722 375.118 64.7988 374.903 65.1013C374.686 65.3844 374.34 65.5974 373.864 65.7401C373.388 65.8828 372.73 65.9001 371.892 65.792C371.262 66.3112 370.607 66.8802 369.925 67.4991C369.261 68.0977 368.638 68.723 368.054 69.3752C367.47 70.008 366.991 70.6253 366.618 71.227C367.319 70.9555 368.12 70.727 369.02 70.5412C369.918 70.3362 370.831 70.2079 371.757 70.1562C372.877 70.0938 373.796 70.2459 374.513 70.6125C375.249 70.9588 375.799 71.4509 376.164 72.0889C376.548 72.7259 376.762 73.44 376.806 74.2315C376.856 75.1194 376.616 76.0235 376.086 76.9438C375.556 77.864 374.83 78.7178 373.905 79.5052C372.981 80.2925 371.943 80.941 370.79 81.4506C369.637 81.9603 368.462 82.2484 367.265 82.3152ZM384.769 80.8455C383.572 80.9122 382.584 80.551 381.804 79.7618C381.023 78.9534 380.58 77.6129 380.476 75.7405C380.409 74.5437 380.478 73.3394 380.681 72.1275C380.903 70.8952 381.235 69.7246 381.676 68.6157C382.136 67.4863 382.68 66.4781 383.308 65.5911C383.956 64.703 384.681 63.9945 385.484 63.4657C386.287 62.9175 387.132 62.6187 388.019 62.5691C389.525 62.4852 390.725 62.8249 391.62 63.5883C392.514 64.3517 392.997 65.3607 393.067 66.6154C393.12 67.5806 392.899 68.474 392.403 69.2956C391.925 70.0967 391.249 70.8315 390.376 71.4998C389.503 72.1681 388.521 72.7844 387.43 73.3487C386.338 73.913 385.215 74.4307 384.06 74.9017C384.002 75.602 383.988 76.2224 384.018 76.7629C384.037 77.0911 384.229 77.2449 384.596 77.2245C385.465 77.176 386.384 76.9892 387.353 76.6641C388.341 76.3186 389.334 75.8953 390.332 75.3943C391.329 74.874 392.287 74.3461 393.206 73.8108C394.124 73.2562 394.957 72.7354 395.704 72.2483C396.47 71.7409 397.096 71.3381 397.583 71.0399C398.088 70.7213 398.418 70.5577 398.572 70.549C398.997 70.5254 399.313 70.6336 399.52 70.8738C399.727 71.114 399.838 71.3788 399.854 71.6684C399.862 71.8035 399.618 72.1172 399.123 72.6096C398.647 73.1009 397.982 73.6897 397.13 74.3763C396.296 75.0424 395.347 75.744 394.285 76.4809C393.24 77.1975 392.146 77.8878 391.002 78.5519C389.876 79.1956 388.773 79.7218 387.692 80.1306C386.631 80.5577 385.657 80.7959 384.769 80.8455ZM384.408 72.2973C385.174 71.7899 385.929 71.2637 386.673 70.7187C387.435 70.1534 388.059 69.5377 388.545 68.8717C389.03 68.1863 389.248 67.4093 389.199 66.5406C389.185 66.2897 389.109 66.1294 388.969 66.0597C388.829 65.9707 388.633 65.9332 388.382 65.9472C387.706 65.9849 387.105 66.3185 386.579 66.9481C386.072 67.5767 385.632 68.3757 385.26 69.3453C384.907 70.2944 384.623 71.2784 384.408 72.2973ZM404.288 80.2218C402.551 80.3187 401.151 79.8643 400.088 78.8585C399.043 77.8325 398.465 76.3253 398.354 74.337C398.294 73.256 398.368 71.9836 398.577 70.5197C398.785 69.0365 399.075 67.4713 399.448 65.8239C399.839 64.1563 400.26 62.5062 400.712 60.8739C401.182 59.2405 401.649 57.7235 402.113 56.3228C402.577 54.9222 402.986 53.7472 403.34 52.7981C403.648 52.0645 404.12 51.6799 404.757 51.6444C405.162 51.6218 405.498 51.729 405.762 51.9659C406.047 52.2018 406.204 52.5996 406.236 53.1594C406.251 53.4297 406.148 54.026 405.929 54.9483C405.709 55.8706 405.414 57.0101 405.045 58.3668C404.693 59.7031 404.309 61.1477 403.892 62.7007C403.495 64.2526 403.117 65.813 402.759 67.382C402.42 68.95 402.154 70.4268 401.96 71.8124C401.766 73.1787 401.694 74.3348 401.747 75.2806C401.769 75.6667 401.892 75.9696 402.117 76.1894C402.362 76.4081 402.668 76.5073 403.034 76.4868C403.826 76.4427 404.628 76.2527 405.442 75.9169C406.276 75.58 407.085 75.1669 407.871 74.6778C408.676 74.1875 409.432 73.671 410.137 73.1282C410.843 72.5854 411.473 72.0759 412.027 71.5996C412.6 71.103 413.062 70.7093 413.414 70.4186C413.876 70.0249 414.194 69.8232 414.367 69.8136C415.024 69.777 415.37 70.0772 415.405 70.7142C415.414 70.8686 415.239 71.1979 414.879 71.702C414.575 72.145 414.142 72.7113 413.58 73.401C413.018 74.0906 412.362 74.8243 411.611 75.602C410.879 76.3592 410.087 77.0811 409.234 77.7677C408.401 78.4531 407.562 79.0227 406.716 79.4765C405.869 79.9303 405.06 80.1788 404.288 80.2218ZM417.379 81.2927C416.897 81.3196 416.474 81.198 416.11 80.9278C415.747 80.6769 415.562 80.1257 415.553 79.2742C415.539 78.3262 415.552 77.338 415.591 76.3095C415.63 75.2811 415.683 74.3196 415.75 73.4252C415.892 71.4616 415.866 69.9527 415.672 68.8985C415.495 67.824 415.153 67.0686 414.645 66.6322C414.156 66.1947 413.511 65.9209 412.711 65.8106C412.321 65.7549 412.004 65.6273 411.76 65.4279C411.516 65.2092 411.383 64.9164 411.363 64.5497C411.336 64.0671 411.511 63.7378 411.889 63.5619C412.247 63.387 412.715 63.2834 413.294 63.2511C413.738 63.2264 414.309 63.2236 415.008 63.2427C415.724 63.2415 416.488 63.228 417.3 63.2021C417.852 60.9445 418.512 59.0682 419.281 57.5731C420.049 56.0779 420.912 54.8874 421.87 54.0014C422.826 53.0961 423.855 52.4481 424.956 52.0575C426.057 51.6476 427.205 51.4093 428.402 51.3426C429.888 51.2597 430.661 51.7491 430.72 52.8108C430.749 53.332 430.52 53.7417 430.034 54.0399C429.547 54.3382 428.797 54.6027 427.783 54.8335C426.579 55.1136 425.53 55.5691 424.635 56.1998C423.761 56.8295 423.005 57.6946 422.369 58.795C421.753 59.8943 421.231 61.2982 420.803 63.0067C423.483 62.7992 425.676 62.5317 427.381 62.2043C429.086 61.8768 430.396 61.5811 431.311 61.3171C432.244 61.0328 432.894 60.8803 433.26 60.8599C433.781 60.8308 434.107 60.9385 434.237 61.183C434.386 61.4264 434.469 61.6929 434.485 61.9825C434.503 62.3106 434.213 62.6657 433.615 63.0476C433.222 63.3018 432.59 63.5984 431.718 63.9375C430.845 64.2573 429.818 64.5856 428.636 64.9226C427.453 65.2403 426.201 65.5231 424.879 65.7711C423.575 65.9987 422.295 66.1475 421.041 66.2175C420.732 66.2347 420.452 66.2503 420.201 66.2643C420.051 67.3957 419.905 68.5947 419.762 69.8613C419.638 71.1075 419.532 72.3236 419.443 73.5097C419.354 74.6958 419.279 75.7747 419.217 76.7463C419.174 77.7169 419.159 78.4922 419.172 79.0724C419.193 79.7877 419.039 80.3288 418.711 80.6956C418.383 81.0625 417.939 81.2615 417.379 81.2927ZM444.884 78.7716C443.996 78.8211 443.345 78.6057 442.931 78.1253C442.517 77.6449 442.283 76.9222 442.229 75.957C442.179 75.0691 442.279 73.9017 442.527 72.455C442.794 70.9878 443.158 69.3507 443.619 67.5436C444.098 65.7161 444.641 63.8366 445.25 61.905C445.858 59.9542 446.497 58.0403 447.167 56.1634C447.835 54.2673 448.493 52.5266 449.141 50.9414C449.451 50.2464 449.792 49.7627 450.164 49.4902C450.536 49.2178 450.953 49.0686 451.417 49.0428C451.861 49.018 452.244 49.1225 452.567 49.3562C452.889 49.5706 453.064 49.9385 453.093 50.4596C453.1 50.5755 452.97 51.028 452.704 51.8174C452.437 52.5875 452.087 53.5945 451.653 54.8386C451.218 56.0634 450.743 57.4453 450.228 58.9844C449.713 60.5041 449.201 62.0914 448.693 63.7462C448.184 65.3818 447.732 66.9948 447.336 68.5852C446.941 70.1757 446.636 71.645 446.42 72.9931C447.045 72.0481 447.713 71.004 448.424 69.8607C449.153 68.6969 449.892 67.5423 450.642 66.3968C451.409 65.231 452.163 64.1627 452.903 63.192C453.662 62.2202 454.373 61.4351 455.037 60.8365C455.701 60.238 456.293 59.9242 456.814 59.8951C457.779 59.8413 458.567 60.0685 459.176 60.5767C459.803 61.0645 460.153 61.9551 460.225 63.2484C460.259 63.8468 460.183 64.5772 459.999 65.4394C459.813 66.2824 459.583 67.1763 459.306 68.1212C459.048 69.0456 458.826 69.939 458.642 70.8013C458.458 71.6635 458.384 72.4132 458.419 73.0502C458.438 73.3976 458.612 73.5622 458.94 73.5439C459.886 73.4912 460.83 73.2352 461.773 72.776C462.735 72.3158 463.643 71.7617 464.498 71.1138C465.371 70.4455 466.157 69.7917 466.857 69.1524C467.576 68.4927 468.155 67.9472 468.596 67.516C468.907 67.1889 469.195 66.9695 469.459 66.8579C469.723 66.7271 469.971 66.6552 470.203 66.6422C470.994 66.5981 471.412 66.9718 471.456 67.7632C471.465 67.9176 471.446 68.1123 471.401 68.3471C471.355 68.5627 471.187 68.8432 470.896 69.1886C470.606 69.5339 470.168 70.0231 469.584 70.6559C469 71.2887 468.311 71.9661 467.519 72.688C466.746 73.4088 465.894 74.105 464.963 74.7765C464.051 75.4277 463.103 75.9743 462.121 76.4163C461.139 76.8583 460.175 77.1057 459.229 77.1585C457.801 77.2381 456.678 76.8941 455.86 76.1264C455.044 75.378 454.598 74.3185 454.521 72.948C454.469 72.0021 454.595 70.8042 454.902 69.3543C455.207 67.885 455.559 66.3841 455.958 64.8515C455.319 65.5455 454.658 66.3665 453.975 67.3147C453.291 68.2435 452.6 69.2309 451.904 70.2766C451.206 71.303 450.517 72.3193 449.837 73.3254C449.176 74.3111 448.539 75.2179 447.927 76.046C447.313 76.8547 446.749 77.5058 446.235 77.9992C445.72 78.4926 445.27 78.7501 444.884 78.7716ZM481.289 61.8997C481.359 63.1544 480.714 64.4393 479.355 65.7543C478.014 67.049 475.883 68.2522 472.963 69.3638C472.964 69.3831 472.966 69.412 472.968 69.4507C473.003 70.0877 473.109 70.5949 473.285 70.9724C473.46 71.3305 473.808 71.4951 474.329 71.466C475.101 71.4229 475.947 71.1434 476.867 70.6274C477.806 70.091 478.766 69.4275 479.748 68.6369C480.748 67.826 481.718 66.978 482.656 66.0931C483.594 65.2082 484.458 64.3758 485.247 63.596C486.054 62.7958 486.735 62.1479 487.288 61.6523C487.859 61.1364 488.242 60.873 488.435 60.8623C488.84 60.8397 489.186 60.9753 489.474 61.269C489.781 61.5618 489.951 62.017 489.986 62.6347C490.005 62.9821 490.009 63.3982 489.997 63.883C490.765 62.3686 491.682 61.1072 492.749 60.0989C493.815 59.0713 494.875 58.2957 495.93 57.7722C497.004 57.2283 497.926 56.9348 498.699 56.8917C499.567 56.8433 500.166 56.9842 500.494 57.3144C500.821 57.6254 500.995 57.9642 501.015 58.331C501.027 58.5433 500.991 58.7583 500.906 58.9761C500.84 59.1734 500.639 59.3976 500.305 59.6486C499.989 59.8985 499.454 60.1994 498.699 60.5514C497.698 60.9945 496.748 61.5024 495.851 62.0753C494.972 62.6471 494.173 63.4081 493.451 64.3584C492.748 65.2884 492.129 66.5234 491.595 68.0635C491.08 69.5832 490.685 71.5222 490.409 73.8805C490.311 74.5444 490.123 75.0002 489.847 75.248C489.571 75.5151 489.24 75.6594 488.854 75.6809C488.816 75.683 488.748 75.6868 488.652 75.6922C488.479 75.7212 488.294 75.7121 488.098 75.665C487.922 75.636 487.739 75.4817 487.55 75.2018C487.38 74.9402 487.228 74.4742 487.094 73.804C486.96 73.1337 486.858 72.1713 486.788 70.9165C486.746 70.1637 486.731 69.3707 486.742 68.5374C486.772 67.6837 486.82 66.8001 486.885 65.8863C485.954 66.9064 484.957 67.9399 483.892 68.9868C482.827 70.0337 481.72 71.0055 480.569 71.9023C479.437 72.7787 478.315 73.4996 477.204 74.065C476.113 74.6293 475.084 74.9383 474.119 74.9922C472.826 75.0643 471.741 74.7084 470.865 73.9247C470.007 73.1205 469.528 71.8402 469.431 70.0836C469.334 68.3463 469.478 66.7601 469.862 65.3251C470.265 63.8698 470.815 62.6096 471.51 61.5445C472.206 60.4795 472.964 59.653 473.783 59.0652C474.62 58.4569 475.415 58.1318 476.168 58.0899C477.77 58.0005 479.008 58.3188 479.881 59.0446C480.753 59.7512 481.223 60.7029 481.289 61.8997ZM473.196 66.7658C473.684 66.4869 474.198 66.1677 474.74 65.8084C475.3 65.4286 475.82 65.0414 476.302 64.6466C476.782 64.2326 477.166 63.8335 477.455 63.4496C477.762 63.0645 477.907 62.7079 477.889 62.3797C477.859 61.8392 477.686 61.5197 477.371 61.4211C477.074 61.3021 476.674 61.2566 476.172 61.2846C475.651 61.3137 475.194 61.6199 474.8 62.2034C474.406 62.7676 474.077 63.4636 473.813 64.2916C473.549 65.1196 473.344 65.9443 473.196 66.7658ZM505.764 74.0991C504.567 74.1658 503.578 73.8046 502.799 73.0155C502.018 72.207 501.575 70.8666 501.471 68.9942C501.404 67.7973 501.472 66.593 501.676 65.3811C501.898 64.1489 502.229 62.9783 502.671 61.8693C503.131 60.7399 503.675 59.7318 504.303 58.8447C504.951 57.9566 505.676 57.2482 506.479 56.7193C507.281 56.1711 508.126 55.8723 509.014 55.8228C510.52 55.7388 511.72 56.0785 512.614 56.8419C513.509 57.6053 513.991 58.6144 514.061 59.8691C514.115 60.8342 513.894 61.7276 513.397 62.5492C512.919 63.3504 512.244 64.0851 511.371 64.7534C510.498 65.4217 509.516 66.038 508.424 66.6023C507.333 67.1666 506.209 67.6843 505.055 68.1553C504.997 68.8556 504.983 69.476 505.013 70.0165C505.031 70.3447 505.224 70.4985 505.591 70.4781C506.459 70.4297 507.378 70.2429 508.348 69.9177C509.335 69.5722 510.328 69.1489 511.327 68.6479C512.324 68.1276 513.282 67.5998 514.201 67.0645C515.119 66.5098 515.952 65.989 516.699 65.502C517.465 64.9946 518.091 64.5917 518.578 64.2935C519.083 63.9749 519.412 63.8113 519.567 63.8027C519.991 63.779 520.307 63.8873 520.514 64.1274C520.721 64.3676 520.833 64.6325 520.849 64.922C520.857 65.0572 520.613 65.3709 520.117 65.8632C519.641 66.3545 518.977 66.9434 518.125 67.6299C517.29 68.296 516.342 68.9976 515.279 69.7346C514.235 70.4512 513.141 71.1415 511.997 71.8055C510.871 72.4492 509.767 72.9755 508.686 73.3843C507.626 73.8113 506.652 74.0496 505.764 74.0991ZM505.403 65.5509C506.169 65.0435 506.924 64.5173 507.668 63.9724C508.43 63.4071 509.054 62.7914 509.54 62.1253C510.024 61.4399 510.243 60.6629 510.194 59.7942C510.18 59.5433 510.103 59.383 509.964 59.3133C509.823 59.2243 509.628 59.1868 509.377 59.2008C508.701 59.2385 508.1 59.5721 507.574 60.2018C507.067 60.8303 506.627 61.6293 506.255 62.5989C505.901 63.548 505.617 64.5321 505.403 65.5509ZM524.276 65.457C524.006 65.4721 523.759 65.3794 523.535 65.1789C523.329 64.958 523.209 64.5484 523.176 63.95C523.152 63.5253 523.192 62.855 523.296 61.9392C523.4 61.0233 523.554 59.9691 523.759 58.7765C523.982 57.5636 524.24 56.3002 524.535 54.9864C524.829 53.6533 525.153 52.3476 525.507 51.0692C525.861 49.7715 526.231 48.5987 526.618 47.5509C526.803 47.0372 527.11 46.6425 527.54 46.3668C527.988 46.0707 528.482 45.9076 529.023 45.8774C529.583 45.8462 530.003 46.0842 530.283 46.5914C530.563 47.0986 530.72 47.6611 530.754 48.2788C530.767 48.5104 530.676 48.9512 530.479 49.6011C530.303 50.25 530.056 51.0383 529.74 51.966C529.424 52.8937 529.073 53.9008 528.688 54.9872C528.322 56.0533 527.947 57.1392 527.563 58.2449C527.198 59.3303 526.858 60.3657 526.545 61.3514C526.232 62.337 525.981 63.203 525.79 63.9495C525.665 64.4793 525.473 64.8579 525.214 65.0853C524.975 65.3116 524.663 65.4355 524.276 65.457ZM523.221 73.6195C522.99 73.6324 522.716 73.5895 522.401 73.4909C522.086 73.3923 521.8 73.1275 521.543 72.6964C521.307 72.2836 521.163 71.6043 521.11 70.6584C521.069 69.9249 521.27 69.3521 521.711 68.9403C522.153 68.5284 522.76 68.3009 523.532 68.2578C524.189 68.2212 524.701 68.3766 525.069 68.724C525.456 69.0703 525.668 69.5813 525.706 70.2569C525.74 70.8746 525.617 71.4334 525.335 71.9332C525.072 72.4319 524.736 72.8282 524.326 73.1222C523.937 73.4343 523.569 73.6001 523.221 73.6195Z" fill="black"/>
</svg>
