<svg width="32" height="32" viewBox="0 0 32 32" fill="none" xmlns="http://www.w3.org/2000/svg">
<g clip-path="url(#clip0_20_6567)">
<path d="M5.33956 26H1V1H31V26H26.7871" stroke="black" stroke-width="2" stroke-linecap="round" stroke-linejoin="round"/>
<path d="M27.455 28.0477L24.0645 17.8788C24.8397 16.523 25.2887 14.9585 25.2887 13.2886C25.2887 8.16643 21.1219 4 16.0001 4C10.8783 4 6.71155 8.16671 6.71155 13.2886C6.71155 14.9583 7.16049 16.5231 7.93566 17.8776L4.54516 28.0477C4.43459 28.3817 4.53079 28.7499 4.79286 28.9854C5.05494 29.221 5.43091 29.2796 5.75048 29.1336L9.89709 27.2493L12.1452 30.9957C12.3066 31.2622 12.5952 31.4236 12.9038 31.4236C12.9358 31.4236 12.9679 31.4214 13.0011 31.4181C13.345 31.3805 13.6347 31.1461 13.7442 30.8187L16 24.0479L18.2569 30.8187C18.3664 31.146 18.6562 31.3805 19 31.4181C19.0321 31.4214 19.0642 31.4236 19.0962 31.4236C19.4036 31.4236 19.6934 31.2622 19.8548 30.9946L22.1029 27.2482L26.2495 29.1325C26.5691 29.2785 26.9451 29.221 27.2071 28.9843C27.4692 28.7499 27.5656 28.3817 27.455 28.0477ZM16 5.76928C20.1467 5.76928 23.5193 9.14194 23.5193 13.2886C23.5193 17.4352 20.1467 20.8078 16 20.8078C11.8534 20.8078 8.48077 17.4352 8.48077 13.2886C8.48077 9.14194 11.8534 5.76928 16 5.76928ZM12.6727 28.4347L11.0085 25.6613C10.7773 25.2765 10.293 25.125 9.88385 25.3119L6.86504 26.6842L9.22038 19.6181C10.6281 21.1253 12.5268 22.1604 14.661 22.4699L12.6727 28.4347ZM22.1161 25.3108C21.7069 25.1229 21.2226 25.2755 20.9915 25.6603L19.3272 28.4336L17.339 22.4691C19.4732 22.1594 21.3718 21.1244 22.7796 19.6173L25.135 26.6833L22.1161 25.3108Z" fill="black"/>
<path d="M15.3003 8.3876C15.6063 7.84056 16.3936 7.84056 16.6996 8.3876V8.3876C16.9199 8.78143 17.4217 8.91589 17.8094 8.68499V8.68499C18.348 8.36425 19.0298 8.75786 19.0213 9.38464V9.38464C19.0152 9.83586 19.3825 10.2032 19.8337 10.1971V10.1971C20.4605 10.1886 20.8541 10.8704 20.5334 11.4089V11.4089C20.3025 11.7967 20.437 12.2985 20.8308 12.5188V12.5188C21.3778 12.8248 21.3778 13.6121 20.8308 13.9181V13.9181C20.437 14.1384 20.3025 14.6402 20.5334 15.028V15.028C20.8541 15.5665 20.4605 16.2483 19.8337 16.2398V16.2398C19.3825 16.2337 19.0152 16.601 19.0213 17.0523V17.0523C19.0298 17.679 18.348 18.0726 17.8094 17.7519V17.7519C17.4217 17.521 16.9199 17.6555 16.6996 18.0493V18.0493C16.3936 18.5963 15.6063 18.5963 15.3003 18.0493V18.0493C15.08 17.6555 14.5781 17.521 14.1904 17.7519V17.7519C13.6519 18.0726 12.9701 17.679 12.9786 17.0523V17.0523C12.9847 16.601 12.6174 16.2337 12.1661 16.2398V16.2398C11.5394 16.2483 11.1457 15.5665 11.4665 15.028V15.028C11.6974 14.6402 11.5629 14.1384 11.1691 13.9181V13.9181C10.6221 13.6121 10.6221 12.8248 11.1691 12.5188V12.5188C11.5629 12.2985 11.6974 11.7967 11.4665 11.4089V11.4089C11.1457 10.8704 11.5394 10.1886 12.1661 10.1971V10.1971C12.6174 10.2032 12.9847 9.83586 12.9786 9.38464V9.38464C12.9701 8.75786 13.6519 8.36425 14.1904 8.68499V8.68499C14.5781 8.91589 15.08 8.78143 15.3003 8.3876V8.3876Z" fill="black"/>
</g>
<defs>
<clipPath id="clip0_20_6567">
<rect width="32" height="32" fill="white"/>
</clipPath>
</defs>
</svg>
